<svg width="101" height="73" viewBox="0 0 101 73" fill="none" xmlns="http://www.w3.org/2000/svg">
<line x1="91.5" y1="11" x2="91.5" y2="64" stroke="black"/>
<g clip-path="url(#clip0_20_542)">
<path d="M86.4834 15.9567L85.6001 15.0725L90.4143 10.2567C90.4914 10.179 90.5832 10.1174 90.6842 10.0754C90.7852 10.0333 90.8936 10.0117 91.003 10.0117C91.1125 10.0117 91.2208 10.0333 91.3219 10.0754C91.4229 10.1174 91.5146 10.179 91.5918 10.2567L96.4084 15.0725L95.5251 15.9558L91.0043 11.4358L86.4834 15.9567Z" fill="black"/>
</g>
<g clip-path="url(#clip1_20_542)">
<path d="M95.5166 59.0433L96.3999 59.9275L91.5857 64.7433C91.5086 64.821 91.4168 64.8826 91.3158 64.9246C91.2148 64.9667 91.1064 64.9883 90.997 64.9883C90.8875 64.9883 90.7792 64.9667 90.6781 64.9246C90.5771 64.8826 90.4854 64.821 90.4082 64.7433L85.5916 59.9275L86.4749 59.0442L90.9957 63.5642L95.5166 59.0433Z" fill="black"/>
</g>
<path d="M40.9192 46.3323C40.9192 44.3384 42.6686 42.7153 44.8198 42.7153C46.9688 42.7153 48.7183 44.3384 48.7183 46.3323C48.7183 48.3281 46.9688 49.9512 44.8198 49.9512C42.6686 49.9512 40.9192 48.3281 40.9192 46.3323Z" fill="#B3B3B3"/>
<path d="M68.0491 5.89679L72.6575 7.65005V65.3499L68.0491 67.1012V5.89679Z" fill="#B3B3B3"/>
<path d="M11.3403 7.65005L15.9488 5.89679L15.9488 67.1012L11.3403 65.3499L11.3403 7.65005Z" fill="#B3B3B3"/>
<path d="M19.1353 3.63866C26.2201 1.25627 34.0702 0 41.9989 0C49.9277 0 57.7799 1.25627 64.8647 3.63866C64.8817 3.16731 65.1411 2.72949 65.5662 2.46522C66.0083 2.19109 66.5674 2.13783 67.0584 2.32519L74.8575 5.2874C75.4548 5.51617 75.8459 6.05655 75.8459 6.65609V8.60459C78.6773 10.2671 81.2558 12.1348 83.5154 14.1681C83.8236 14.4462 84 14.8288 84 15.2291V57.7669C84 58.1673 83.8236 58.5519 83.5154 58.8299C81.2558 60.8613 78.6773 62.7289 75.8459 64.3934V66.3419C75.8459 66.9415 75.4548 67.4838 74.8575 67.7106L67.0584 70.6748C66.5674 70.8622 66.0083 70.8089 65.5662 70.5348C65.1411 70.2685 64.8839 69.8327 64.8647 69.3594C57.7799 71.7418 49.9277 73 41.9989 73C34.0702 73 26.2201 71.7418 19.1353 69.3594C19.1161 69.8327 18.8568 70.2685 18.4317 70.5348C17.9916 70.8089 17.4305 70.8622 16.9394 70.6748L9.1425 67.7106C8.54306 67.4838 8.15193 66.9415 8.15193 66.3419V64.3934C5.32054 62.7289 2.74211 60.8613 0.484652 58.8299C0.174305 58.5519 0 58.1673 0 57.7669L0 15.2291C0 14.8288 0.174305 14.4462 0.482526 14.1681C2.74211 12.1348 5.32054 10.2671 8.15193 8.60459V6.65609C8.15193 6.05655 8.54306 5.51617 9.1425 5.2874L16.9394 2.32519C17.4305 2.13783 17.9916 2.19109 18.4317 2.46522C18.8568 2.72949 19.1161 3.16731 19.1353 3.63866ZM41.9989 2.95826C34.0298 2.95826 26.1521 4.28554 19.1374 6.79611L19.1374 12.121C26.2137 10.3697 34.0659 9.44671 41.9989 9.44671C49.9319 9.44671 57.7841 10.3697 64.8605 12.121V6.79611C57.8458 4.28554 49.9681 2.95826 41.9989 2.95826ZM15.9489 5.8968L11.3404 7.65005L11.3404 65.3499L15.9489 67.1012L15.9489 5.8968ZM72.6574 7.65005L68.049 5.8968V67.1012L72.6574 65.3499V7.65005ZM8.15193 15.7774V12.1525C6.36425 13.3043 4.70198 14.5448 3.1885 15.8622L3.1885 18.2327C4.73599 17.3591 6.39401 16.5386 8.15193 15.7774ZM75.8459 12.1525V15.7774C77.6039 16.5386 79.2619 17.3591 80.8115 18.2327V15.8622C79.298 14.5448 77.6336 13.3043 75.8459 12.1525ZM41.9989 12.405C34.0298 12.405 26.1563 13.3654 19.1374 15.1857V25.725C26.1882 25.0052 34.0468 24.6246 41.9989 24.6246C49.9511 24.6246 57.8097 25.0052 64.8605 25.725V15.1857C57.8415 13.3654 49.9659 12.405 41.9989 12.405ZM8.15193 27.2357V19.063C6.3685 19.8953 4.70623 20.7907 3.1885 21.7432V28.2553C4.72961 27.8924 6.38976 27.5513 8.15193 27.2357ZM75.8459 19.063V27.2357C77.6081 27.5513 79.2683 27.8924 80.8115 28.2553V21.7432C79.2916 20.7907 77.6294 19.8953 75.8459 19.063ZM41.9989 27.5828C34.0298 27.5828 26.1606 27.9674 19.1374 28.701V44.299C24.966 44.9084 31.2324 45.2712 37.8071 45.3797C38.3066 42.2045 41.2592 39.757 44.8197 39.757C48.3185 39.757 51.2328 42.1217 51.8025 45.22C56.3536 45.0366 60.7303 44.7289 64.8605 44.297V28.701C57.8373 27.9674 49.9659 27.5828 41.9989 27.5828ZM8.15193 42.7488L8.15193 30.2492C6.37488 30.5785 4.7126 30.9335 3.1885 31.3102L3.1885 41.6878C4.7126 42.0645 6.37488 42.4195 8.15193 42.7488ZM75.8459 30.2492V42.7488C77.6251 42.4195 79.2853 42.0645 80.8115 41.6878V31.3102C79.2853 30.9335 77.6251 30.5785 75.8459 30.2492ZM44.8197 42.7153C42.6685 42.7153 40.9191 44.3384 40.9191 46.3323C40.9191 48.3281 42.6685 49.9512 44.8197 49.9512C46.9687 49.9512 48.7182 48.3281 48.7182 46.3323C48.7182 44.3384 46.9687 42.7153 44.8197 42.7153ZM3.1885 44.7427L3.1885 51.2548C4.70198 52.2054 6.36425 53.1008 8.15193 53.935V45.7643C6.38976 45.4468 4.72961 45.1056 3.1885 44.7427ZM80.8115 51.2548V44.7427C79.2683 45.1056 77.6081 45.4468 75.8459 45.7643V53.935C77.6336 53.1008 79.2959 52.2054 80.8115 51.2548ZM19.1374 47.275V57.8123C26.1563 59.6326 34.0298 60.595 41.9989 60.595C49.9659 60.595 57.8415 59.6326 64.8605 57.8123V47.275C60.6665 47.7049 56.2239 48.0086 51.6176 48.1881C50.7524 50.9136 48.0337 52.9095 44.8197 52.9095C41.6673 52.9095 38.989 50.9886 38.0707 48.3419C31.4131 48.2413 25.0595 47.8824 19.1374 47.275ZM3.1885 54.7653V57.1339C4.69985 58.4513 6.36425 59.6898 8.15193 60.8435V57.2206C6.39188 56.4574 4.73386 55.637 3.1885 54.7653ZM80.8115 57.1339V54.7653C79.2661 55.637 77.606 56.4574 75.8459 57.2206V60.8435C77.6336 59.6898 79.298 58.4513 80.8115 57.1339ZM19.1374 60.8771V66.2039C26.1521 68.7145 34.0298 70.0417 41.9989 70.0417C49.9681 70.0417 57.8458 68.7145 64.8605 66.2039V60.8771C57.7841 62.6283 49.9319 63.5533 41.9989 63.5533C34.0659 63.5533 26.2137 62.6283 19.1374 60.8771Z" fill="#4D4D4D"/>
<defs>
<clipPath id="clip0_20_542">
<rect width="10" height="20" fill="white" transform="matrix(0 -1 1 0 81 18)"/>
</clipPath>
<clipPath id="clip1_20_542">
<rect width="10" height="20" fill="white" transform="matrix(0 1 -1 0 101 57)"/>
</clipPath>
</defs>
</svg>
